<svg width="13" height="16" viewBox="0 0 13 16" fill="none" xmlns="http://www.w3.org/2000/svg">
<path d="M12.2733 7.61857C12.1414 7.45506 11.913 7.39572 11.5749 7.43277C11.1403 7.48292 10.6667 7.83027 10.3378 8.34104C10.2988 8.40052 10.2636 8.46362 10.2302 8.52685L9.74715 4.39032C9.71865 4.16384 9.60774 3.95574 9.43555 3.80584C9.26335 3.65607 9.04206 3.57483 8.81376 3.57781C8.58546 3.58079 8.36637 3.66759 8.19807 3.82191C8.15156 3.6273 8.0435 3.4529 7.88983 3.32477C7.73616 3.19663 7.5453 3.12148 7.34552 3.11047C7.29279 2.81765 7.10129 2.56862 6.8318 2.44228C6.5623 2.31608 6.24835 2.32839 5.9896 2.47519L6.00074 2.37866C6.02484 2.1374 5.95371 1.89614 5.8025 1.70672C5.6513 1.51716 5.43181 1.39433 5.1912 1.36441C4.95059 1.33448 4.70779 1.39978 4.51471 1.54645C4.35211 1.67641 4.23873 1.85793 4.19338 2.06097C4.02521 1.90601 3.8057 1.81855 3.57704 1.81531C3.34835 1.8122 3.12653 1.89344 2.95408 2.04374C2.78163 2.19391 2.67059 2.4025 2.64235 2.62938L2.15765 6.75662C2.12422 6.69352 2.08898 6.63029 2.04998 6.57082C1.72308 6.06008 1.24758 5.7127 0.812865 5.66254C0.476629 5.62354 0.25559 5.68483 0.114488 5.84834C-0.102796 6.11771 0.0253462 6.56719 0.199872 7.08171V7.10399C0.350301 7.5479 0.469242 7.89707 0.298345 9.37751C0.112544 11.0492 0.504485 12.3012 1.47781 13.1147C2.16139 13.6849 3.10127 14.0434 4.41082 14.2106L4.43492 14.2199H4.52407C4.56488 14.2199 4.60207 14.231 4.64301 14.2366H4.66529H4.66516C4.67812 14.2385 4.69121 14.2385 4.70416 14.2366H4.76545C5.0194 14.7645 5.41716 15.2099 5.91304 15.5218C6.40888 15.8336 6.98261 15.9992 7.56838 15.9993H7.66309C7.67553 16.0002 7.68797 16.0002 7.70028 15.9993H7.72257L7.83956 15.9826H7.95656C9.26608 15.7968 10.206 15.457 10.8876 14.8868C11.8703 14.0619 12.2733 12.8045 12.0746 11.1476C11.9055 9.66158 12.0244 9.31423 12.1749 8.87212V8.85165C12.357 8.32794 12.4832 7.88029 12.2733 7.61842L12.2733 7.61857ZM6.51515 2.75564H6.51528C6.65742 2.77145 6.78724 2.84374 6.8756 2.95621C6.92794 3.02242 6.96357 3.10003 6.97964 3.18282C6.78944 3.2572 6.62917 3.39207 6.52343 3.56672C6.41758 3.74125 6.37236 3.94585 6.39451 4.14874L6.40566 4.24527V4.2454C6.23631 4.1503 6.04146 4.11065 5.84838 4.13203C5.83607 4.13112 5.82363 4.13112 5.8112 4.13203L5.91524 3.22183C5.93169 3.08203 6.00192 2.95415 6.11127 2.86527C6.2205 2.77651 6.36017 2.73376 6.50035 2.74632L6.51515 2.75564ZM4.472 2.84115L4.54443 2.21147C4.55699 2.06649 4.62748 1.93277 4.7402 1.84064C4.85279 1.74852 4.99791 1.70589 5.14251 1.72247C5.28698 1.73906 5.41875 1.8133 5.50764 1.92848C5.59653 2.04367 5.635 2.18995 5.6144 2.33404L5.38779 4.30476C5.12334 4.50027 4.98213 4.82107 5.01633 5.14812L5.15743 6.31836L5.09795 6.8291C4.96087 6.7761 4.81317 6.75706 4.66702 6.77338C4.37122 6.80966 4.11067 6.98587 3.96685 7.24707L4.472 2.84115ZM4.54624 13.8374C3.27208 13.6739 2.37313 13.3507 1.73412 12.8195C0.853715 12.0766 0.513731 10.9732 0.692148 9.42398C0.870432 7.87488 0.734906 7.4513 0.57515 6.97957V6.9591C0.498964 6.73806 0.324438 6.21618 0.424721 6.09541C0.463722 6.04527 0.595619 6.02855 0.77585 6.05084C1.09342 6.08608 1.46865 6.37398 1.73245 6.78261H1.73232C2.06414 7.31823 2.20057 7.95209 2.11857 8.57687C2.10627 8.68363 2.18284 8.78003 2.28947 8.79234C2.39624 8.80465 2.49263 8.7282 2.50494 8.62144C2.54498 8.27522 2.5306 7.92489 2.46231 7.58308L3.01959 2.6757L3.01946 2.67583C3.04136 2.48498 3.16341 2.32042 3.33962 2.24397C3.51583 2.16751 3.71937 2.19084 3.87371 2.30525C4.02789 2.41966 4.10952 2.60753 4.08762 2.79838L3.54332 7.51272C3.5314 7.61922 3.60771 7.71549 3.71421 7.72819C3.76254 7.73402 3.81126 7.72067 3.84987 7.691C3.84793 7.72624 3.84793 7.76161 3.84987 7.79686L4.16562 10.5347L4.47205 13.2356C4.49602 13.4412 4.54007 13.6441 4.60395 13.841L4.54624 13.8374ZM11.8146 8.71807V8.74036C11.6548 9.2103 11.5174 9.61519 11.6976 11.183C11.8778 12.7506 11.5305 13.8428 10.6463 14.5785C10.0092 15.1115 9.11572 15.4366 7.83223 15.6057C7.11923 15.673 6.40828 15.4576 5.85243 15.0061C5.29658 14.5544 4.94041 13.9027 4.86021 13.191L4.45157 9.65082L4.23428 7.75616C4.21757 7.61441 4.25799 7.47189 4.34649 7.36009C4.43498 7.24827 4.56442 7.17623 4.70617 7.1599C4.84766 7.14138 4.9907 7.18167 5.10175 7.27133C5.21395 7.35996 5.28612 7.48965 5.30232 7.63165L5.52155 9.52813L5.59397 10.1596C5.60628 10.2664 5.70281 10.3428 5.80944 10.3305C5.91621 10.3182 5.99265 10.2218 5.98034 10.1151L5.69426 7.58525L5.40079 5.10367C5.38511 4.96218 5.42579 4.82017 5.51416 4.70849C5.60253 4.59693 5.73132 4.52463 5.87269 4.5074C6.01482 4.49159 6.1576 4.53228 6.27005 4.62064C6.38096 4.7094 6.45248 4.83819 6.46881 4.97917L6.97398 9.35916L6.97411 9.35929C6.97644 9.38494 6.98473 9.40969 6.9982 9.43172V9.44467C7.00844 9.46009 7.02101 9.47383 7.03539 9.48549C7.04148 9.49093 7.04835 9.49533 7.05586 9.49857C7.06804 9.5079 7.08191 9.5149 7.09668 9.51905H7.12829C7.13814 9.52008 7.14812 9.52008 7.15796 9.51905H7.18025C7.2322 9.51503 7.28001 9.48938 7.31215 9.44843C7.34428 9.40749 7.35776 9.35488 7.34933 9.30358L6.86268 4.93652L6.76602 4.08941C6.74412 3.89869 6.82575 3.71069 6.97993 3.59629C7.13424 3.48201 7.33779 3.45856 7.51402 3.535C7.69023 3.61145 7.81216 3.77613 7.83405 3.96686L7.90648 4.59655L8.45065 9.31254H8.45078C8.45428 9.36476 8.47968 9.41322 8.52062 9.44574C8.56169 9.47826 8.61456 9.49199 8.66625 9.48344C8.71821 9.47942 8.76602 9.4539 8.79815 9.41295C8.83029 9.37188 8.84376 9.31941 8.83521 9.26797L8.29283 4.55728C8.27663 4.36915 8.3602 4.18632 8.51296 4.0753C8.66572 3.96426 8.86552 3.94146 9.03939 4.01492C9.21327 4.08852 9.33597 4.24775 9.36279 4.43471L9.92006 9.34209C9.85178 9.68377 9.8374 10.0341 9.87731 10.3803C9.8808 10.4323 9.90594 10.4802 9.94662 10.5127C9.98718 10.5453 10.0395 10.5591 10.091 10.5512C10.1432 10.5477 10.1915 10.5223 10.224 10.4814C10.2565 10.4403 10.2703 10.3874 10.2619 10.3358C10.1077 8.92968 10.9732 7.88395 11.6122 7.80401C11.798 7.78354 11.9242 7.80401 11.9652 7.84859C12.0654 7.97867 11.889 8.49694 11.8146 8.71798L11.8146 8.71807Z" fill="#16161D"/>
<path d="M12.7619 6.05098H12.7118L10.3862 5.44176C10.3369 5.42893 10.2947 5.39706 10.2689 5.35326C10.2433 5.30934 10.2359 5.257 10.2487 5.20776C10.2754 5.10514 10.3802 5.0436 10.4827 5.07029L12.2974 5.54023L11.235 4.03014H11.2351C11.2052 3.98738 11.1936 3.93439 11.2031 3.88308C11.2124 3.83177 11.2421 3.78642 11.2852 3.75701L12.214 3.1329L11.1571 2.76144H11.157C11.1049 2.74485 11.0628 2.70611 11.0419 2.65558C11.0215 2.60557 11.0215 2.5496 11.0419 2.49958L11.8239 0.720124L10.3768 1.70459C10.2985 1.75434 10.196 1.7419 10.1317 1.67491L9.35157 0.803693L9.07663 1.81976C9.06017 1.88066 9.01508 1.92977 8.95587 1.95166C8.89445 1.97823 8.82358 1.96967 8.7702 1.92938L7.38084 0.969032L7.81542 2.52745C7.84419 2.63007 7.78433 2.73645 7.68171 2.76521C7.57909 2.79397 7.47259 2.73398 7.44396 2.6315L6.87374 0.560381C6.8385 0.479661 6.8648 0.385208 6.93684 0.334287C7.00875 0.283498 7.10658 0.290235 7.17084 0.350483L8.77384 1.46503L9.07107 0.3672C9.08389 0.293996 9.13922 0.235558 9.21165 0.218585C9.28395 0.201612 9.35948 0.22934 9.40354 0.289199L10.3082 1.2997L12.1656 0.0329343C12.2378 -0.0153932 12.3333 -0.0100828 12.3996 0.0458909C12.4662 0.0966795 12.4905 0.185692 12.4591 0.263176L11.4914 2.46621L12.7192 2.88978V2.88965C12.7948 2.90714 12.8517 2.96985 12.8617 3.04694C12.8717 3.12403 12.8325 3.19905 12.7637 3.2352L11.6659 3.96519L12.9197 5.74647C12.9683 5.81217 12.9683 5.90183 12.9197 5.96752C12.8849 6.02051 12.8253 6.052 12.7619 6.05109L12.7619 6.05098Z" fill="#16161D"/>
</svg>