<svg width="52" height="58" viewBox="0 0 52 58" fill="none" xmlns="http://www.w3.org/2000/svg">
<path d="M49.0076 27.6172C48.4809 27.0245 47.5688 26.8094 46.2189 26.9437C44.4832 27.1255 42.5922 28.3846 41.2791 30.2362C41.1234 30.4518 40.9827 30.6805 40.8492 30.9097L38.9205 15.9148C38.8067 15.0938 38.3639 14.3394 37.6763 13.7961C36.9887 13.2531 36.1051 12.9586 35.1935 12.9694C34.2819 12.9802 33.4071 13.2949 32.735 13.8543C32.5493 13.1489 32.1178 12.5167 31.5042 12.0522C30.8906 11.5877 30.1285 11.3153 29.3308 11.2753C29.1202 10.2139 28.3556 9.31113 27.2795 8.85314C26.2034 8.39567 24.9498 8.44029 23.9166 8.97244L23.9611 8.62252C24.0573 7.74798 23.7733 6.87342 23.1695 6.18674C22.5657 5.4996 21.6893 5.05433 20.7285 4.94588C19.7678 4.83738 18.7983 5.0741 18.0273 5.60578C17.378 6.07687 16.9253 6.73489 16.7443 7.47092C16.0727 6.90918 15.1962 6.59214 14.2832 6.58041C13.37 6.56914 12.4843 6.86363 11.7957 7.40845C11.1071 7.95281 10.6637 8.70895 10.5509 9.53138L8.61552 24.4926C8.48204 24.2639 8.34132 24.0347 8.18559 23.8191C6.88028 21.9677 4.98161 20.7084 3.24578 20.5266C1.90319 20.3852 1.02057 20.6074 0.457153 21.2001C-0.410468 22.1766 0.101208 23.806 0.798094 25.6711V25.7519C1.39876 27.361 1.87369 28.6268 1.1913 33.9934C0.449392 40.0531 2.01442 44.5918 5.90091 47.5406C8.63047 49.6076 12.3834 50.9073 17.6125 51.5132L17.7087 51.547H18.0647C18.2276 51.547 18.3761 51.5874 18.5396 51.6076H18.6286H18.6281C18.6798 51.6146 18.7321 51.6146 18.7838 51.6076H19.0285C20.0425 53.521 21.6308 55.1358 23.6109 56.2663C25.5908 57.3968 27.8817 57.9972 30.2207 57.9975H30.5989C30.6485 58.0008 30.6982 58.0008 30.7473 57.9975H30.8363L31.3035 57.9369H31.7707C36.9996 57.2634 40.7526 56.0314 43.4744 53.9644C47.3981 50.9744 49.0076 46.4162 48.214 40.4099C47.5388 35.0231 48.0138 33.764 48.6144 32.1613V32.0871C49.3418 30.1887 49.8458 28.5659 49.0076 27.6167L49.0076 27.6172ZM26.0151 9.98909H26.0156C26.5832 10.0464 27.1016 10.3085 27.4544 10.7162C27.6634 10.9562 27.8057 11.2375 27.8698 11.5376C27.1103 11.8072 26.4704 12.2962 26.0482 12.9293C25.6255 13.5619 25.4449 14.3036 25.5334 15.0391L25.5779 15.389V15.3895C24.9017 15.0447 24.1236 14.901 23.3527 14.9785C23.3035 14.9752 23.2539 14.9752 23.2042 14.9785L23.6196 11.679C23.6853 11.1723 23.9658 10.7087 24.4024 10.3865C24.8386 10.0647 25.3963 9.90976 25.956 9.95532L26.0151 9.98909ZM17.8568 10.2991L18.146 8.01648C18.1962 7.4909 18.4776 7.0062 18.9277 6.67221C19.3773 6.33827 19.9567 6.18374 20.5341 6.24386C21.111 6.30398 21.6371 6.57311 21.9921 6.99065C22.347 7.40819 22.5006 7.93847 22.4184 8.4608L21.5135 15.6046C20.4576 16.3134 19.8937 17.4763 20.0303 18.6618L20.5937 22.9039L20.3562 24.7554C19.8088 24.5633 19.2191 24.4942 18.6355 24.5534C17.4543 24.6849 16.414 25.3237 15.8397 26.2705L17.8568 10.2991ZM18.1532 50.1605C13.0655 49.5677 9.47594 48.3963 6.92439 46.4706C3.4089 43.7775 2.05134 39.7777 2.76376 34.1618C3.47565 28.5463 2.93449 27.0109 2.29658 25.3008V25.2266C1.99237 24.4254 1.29549 22.5335 1.69592 22.0958C1.85165 21.914 2.37832 21.8534 3.09798 21.9342C4.36604 22.0619 5.86436 23.1056 6.9177 24.5869H6.91718C8.24216 26.5285 8.78691 28.8262 8.4595 31.091C8.41036 31.4781 8.71612 31.8275 9.1419 31.8721C9.56822 31.9167 9.95313 31.6396 10.0023 31.2526C10.1621 29.9976 10.1047 28.7276 9.83206 27.4886L12.0573 9.69931L12.0568 9.69978C12.1442 9.00794 12.6315 8.41143 13.3352 8.13428C14.0388 7.85713 14.8515 7.9417 15.4678 8.35644C16.0834 8.77117 16.4094 9.45221 16.3219 10.144L14.1485 27.2335C14.1009 27.6196 14.4057 27.9685 14.8309 28.0146C15.0239 28.0357 15.2184 27.9873 15.3726 27.8798C15.3648 28.0075 15.3648 28.1357 15.3726 28.2635L16.6334 38.1883L17.857 47.9789C17.9527 48.7242 18.1286 49.4597 18.3836 50.1737L18.1532 50.1605ZM47.1759 31.6029V31.6837C46.538 33.3872 45.9891 34.855 46.7087 40.5382C47.4284 46.2209 46.0413 50.1802 42.5109 52.847C39.967 54.7792 36.3992 55.9576 31.2742 56.5706C28.4272 56.8144 25.5884 56.0338 23.3689 54.3969C21.1493 52.7597 19.7271 50.3971 19.4069 47.8171L17.7752 34.9841L16.9076 28.116C16.8408 27.6021 17.0022 27.0855 17.3556 26.6802C17.709 26.2749 18.2258 26.0137 18.7918 25.9545C19.3568 25.8874 19.9279 26.0335 20.3714 26.3585C20.8194 26.6797 21.1076 27.1499 21.1722 27.6646L22.0476 34.5394L22.3368 36.8286C22.386 37.2156 22.7714 37.4927 23.1972 37.4481C23.6235 37.4035 23.9288 37.054 23.8796 36.667L22.7373 27.4964L21.5654 18.5007C21.5028 17.9878 21.6653 17.473 22.0181 17.0682C22.371 16.6638 22.8852 16.4017 23.4497 16.3392C24.0173 16.2819 24.5874 16.4294 25.0364 16.7497C25.4793 17.0715 25.7649 17.5383 25.8301 18.0494L27.8472 33.9269L27.8477 33.9273C27.857 34.0203 27.8901 34.11 27.9439 34.1899V34.2368C27.9848 34.2927 28.035 34.3425 28.0924 34.3848C28.1167 34.4045 28.1442 34.4205 28.1742 34.4322C28.2228 34.466 28.2782 34.4914 28.3371 34.5064H28.4634C28.5027 34.5102 28.5425 34.5102 28.5819 34.5064H28.6708C28.8783 34.4919 29.0692 34.3989 29.1975 34.2505C29.3258 34.102 29.3796 33.9114 29.346 33.7254L27.4028 17.8948L27.0168 14.824C26.9294 14.1327 27.2553 13.4511 27.871 13.0364C28.4872 12.6222 29.2999 12.5372 30.0036 12.8143C30.7072 13.0914 31.1941 13.6883 31.2815 14.3798L31.5707 16.6624L33.7436 33.7579H33.7441C33.7581 33.9471 33.8595 34.1228 34.023 34.2407C34.187 34.3586 34.3981 34.4084 34.6045 34.3774C34.812 34.3628 35.0029 34.2703 35.1312 34.1219C35.2595 33.973 35.3133 33.7828 35.2791 33.5963L33.1134 16.52C33.0487 15.8381 33.3824 15.1753 33.9924 14.7729C34.6024 14.3703 35.4002 14.2877 36.0944 14.554C36.7887 14.8208 37.2787 15.398 37.3858 16.0757L39.611 33.865C39.3383 35.1036 39.2809 36.3735 39.4402 37.6286C39.4542 37.8169 39.5546 37.9907 39.717 38.1086C39.879 38.2265 40.088 38.2767 40.2934 38.2481C40.5019 38.2354 40.6948 38.1433 40.8247 37.9949C40.9546 37.846 41.0094 37.6544 40.9758 37.467C40.3601 32.37 43.8161 28.5792 46.3677 28.2894C47.1096 28.2152 47.6135 28.2894 47.7771 28.451C48.1775 28.9226 47.4729 30.8013 47.1759 31.6026L47.1759 31.6029Z" fill="#16161D"/>
<path d="M50.9585 21.9348H50.7583L41.4722 19.7264C41.2756 19.6799 41.1069 19.5643 41.0039 19.4056C40.9015 19.2464 40.872 19.0566 40.9232 18.8781C41.0298 18.5061 41.4484 18.2831 41.8576 18.3798L49.1038 20.0833L44.8615 14.6093H44.862C44.7425 14.4543 44.6964 14.2622 44.7342 14.0762C44.7714 13.8902 44.8899 13.7258 45.0622 13.6192L48.7707 11.3568L44.5506 10.0102H44.55C44.3421 9.9501 44.1739 9.80966 44.0906 9.62649C44.0089 9.44519 44.0089 9.24229 44.0906 9.06099L47.2129 2.61045L41.435 6.17912C41.122 6.35948 40.7127 6.31439 40.4561 6.07157L37.341 2.91339L36.2432 6.59665C36.1775 6.81739 35.9974 6.99541 35.761 7.07479C35.5157 7.17107 35.2327 7.14007 35.0196 6.994L29.4719 3.51274L31.2072 9.16202C31.322 9.53401 31.083 9.91962 30.6732 10.0239C30.2635 10.1282 29.8382 9.91069 29.7239 9.53918L27.447 2.03138C27.3063 1.73877 27.4113 1.39638 27.699 1.21179C27.9861 1.02768 28.3767 1.0521 28.6333 1.2705L35.0341 5.31075L36.221 1.3311C36.2722 1.06573 36.4931 0.853899 36.7823 0.792373C37.071 0.730844 37.3726 0.831356 37.5485 1.04835L41.1607 4.71141L48.5776 0.119387C48.8658 -0.0558003 49.2471 -0.03655 49.512 0.166355C49.7779 0.350463 49.8747 0.673135 49.7495 0.954012L45.8852 8.94L50.7878 10.4754V10.475C51.09 10.5384 51.3171 10.7657 51.3569 11.0452C51.3968 11.3246 51.2405 11.5966 50.9658 11.7276L46.5821 14.3738L51.5887 20.831C51.7827 21.0691 51.7827 21.3941 51.5887 21.6323C51.4495 21.8244 51.2115 21.9385 50.9585 21.9352L50.9585 21.9348Z" fill="#16161D"/>
</svg>
