<svg width="392" height="91" viewBox="0 0 392 91" fill="none" xmlns="http://www.w3.org/2000/svg">
<path d="M171.655 61.064H154.887L152.199 69H140.743L156.999 24.072H169.671L185.927 69H174.343L171.655 61.064ZM168.839 52.616L163.271 36.168L157.767 52.616H168.839ZM196.314 29.576C194.394 29.576 192.816 29.0213 191.578 27.912C190.384 26.76 189.786 25.352 189.786 23.688C189.786 21.9813 190.384 20.5733 191.578 19.464C192.816 18.312 194.394 17.736 196.314 17.736C198.192 17.736 199.728 18.312 200.922 19.464C202.16 20.5733 202.778 21.9813 202.778 23.688C202.778 25.352 202.16 26.76 200.922 27.912C199.728 29.0213 198.192 29.576 196.314 29.576ZM201.818 73.608C201.818 78.0027 200.709 81.16 198.49 83.08C196.272 85.0427 193.178 86.024 189.21 86.024H184.922V76.744H187.546C188.741 76.744 189.594 76.5093 190.106 76.04C190.618 75.5707 190.874 74.8027 190.874 73.736V33.288H201.818V73.608ZM244.951 33.288V69H234.007V64.136C232.897 65.7147 231.383 66.9947 229.463 67.976C227.585 68.9147 225.495 69.384 223.191 69.384C220.46 69.384 218.049 68.7867 215.959 67.592C213.868 66.3547 212.247 64.584 211.095 62.28C209.943 59.976 209.367 57.2667 209.367 54.152V33.288H220.247V52.68C220.247 55.0693 220.865 56.9253 222.103 58.248C223.34 59.5707 225.004 60.232 227.095 60.232C229.228 60.232 230.913 59.5707 232.151 58.248C233.388 56.9253 234.007 55.0693 234.007 52.68V33.288H244.951ZM250.636 51.08C250.636 47.4107 251.318 44.1893 252.684 41.416C254.092 38.6427 255.99 36.5093 258.38 35.016C260.769 33.5227 263.436 32.776 266.38 32.776C268.726 32.776 270.86 33.2667 272.78 34.248C274.742 35.2293 276.278 36.552 277.388 38.216V21.64H288.332V69H277.388V63.88C276.364 65.5867 274.892 66.952 272.972 67.976C271.094 69 268.897 69.512 266.38 69.512C263.436 69.512 260.769 68.7653 258.38 67.272C255.99 65.736 254.092 63.5813 252.684 60.808C251.318 57.992 250.636 54.7493 250.636 51.08ZM277.388 51.144C277.388 48.4133 276.62 46.2587 275.084 44.68C273.59 43.1013 271.756 42.312 269.58 42.312C267.404 42.312 265.548 43.1013 264.012 44.68C262.518 46.216 261.772 48.3493 261.772 51.08C261.772 53.8107 262.518 55.9867 264.012 57.608C265.548 59.1867 267.404 59.976 269.58 59.976C271.756 59.976 273.59 59.1867 275.084 57.608C276.62 56.0293 277.388 53.8747 277.388 51.144ZM294.073 51.08C294.073 47.4107 294.756 44.1893 296.121 41.416C297.529 38.6427 299.428 36.5093 301.817 35.016C304.207 33.5227 306.873 32.776 309.817 32.776C312.335 32.776 314.532 33.288 316.409 34.312C318.329 35.336 319.801 36.68 320.825 38.344V33.288H331.769V69H320.825V63.944C319.759 65.608 318.265 66.952 316.345 67.976C314.468 69 312.271 69.512 309.753 69.512C306.852 69.512 304.207 68.7653 301.817 67.272C299.428 65.736 297.529 63.5813 296.121 60.808C294.756 57.992 294.073 54.7493 294.073 51.08ZM320.825 51.144C320.825 48.4133 320.057 46.2587 318.521 44.68C317.028 43.1013 315.193 42.312 313.017 42.312C310.841 42.312 308.985 43.1013 307.449 44.68C305.956 46.216 305.209 48.3493 305.209 51.08C305.209 53.8107 305.956 55.9867 307.449 57.608C308.985 59.1867 310.841 59.976 313.017 59.976C315.193 59.976 317.028 59.1867 318.521 57.608C320.057 56.0293 320.825 53.8747 320.825 51.144ZM351.463 33.288V69H340.519V33.288H351.463ZM353.447 24.392L338.023 30.856V23.304L353.447 15.88V24.392Z" fill="#16161D"/>
<path d="M76.4792 43.0983C75.6572 42.1733 74.2339 41.8376 72.1273 42.0472C69.4187 42.3309 66.4676 44.2959 64.4185 47.1853C64.1755 47.5218 63.9559 47.8787 63.7476 48.2364L60.7378 24.836C60.5601 23.5547 59.869 22.3775 58.796 21.5296C57.723 20.6823 56.3441 20.2227 54.9215 20.2396C53.4989 20.2564 52.1337 20.7475 51.0849 21.6205C50.7951 20.5195 50.1217 19.533 49.1642 18.8081C48.2066 18.0832 47.0173 17.6581 45.7724 17.5958C45.4438 15.9393 44.2505 14.5305 42.5712 13.8158C40.8919 13.1019 38.9356 13.1716 37.3232 14.002L37.3926 13.4559C37.5428 12.0912 37.0995 10.7264 36.1573 9.65475C35.2151 8.58243 33.8474 7.88757 32.3481 7.71832C30.8488 7.54901 29.3358 7.91842 28.1327 8.74814C27.1194 9.48331 26.413 10.5102 26.1304 11.6588C25.0824 10.7822 23.7146 10.2874 22.2897 10.2691C20.8647 10.2515 19.4825 10.7111 18.4079 11.5613C17.3333 12.4108 16.6413 13.5908 16.4653 14.8743L13.445 38.2222C13.2367 37.8652 13.0171 37.5075 12.7741 37.1711C10.7371 34.2818 7.77409 32.3167 5.06523 32.033C2.97003 31.8123 1.59267 32.159 0.713414 33.084C-0.640559 34.6079 0.15794 37.1506 1.24547 40.0612V40.1873C2.18284 42.6985 2.92401 44.6737 1.85909 53.0486C0.701302 62.5052 3.14361 69.588 9.20871 74.1899C13.4684 77.4156 19.3251 79.4438 27.4853 80.3893L27.6355 80.442H28.191C28.4453 80.442 28.677 80.5051 28.9321 80.5366H29.071H29.0702C29.1509 80.5476 29.2325 80.5476 29.3132 80.5366H29.6951C31.2776 83.5227 33.7561 86.0427 36.8461 87.8069C39.9359 89.5711 43.511 90.5079 47.1611 90.5085H47.7513C47.8288 90.5136 47.9063 90.5136 47.983 90.5085H48.1219L48.8509 90.4139H49.58C57.74 89.3629 63.5968 87.4402 67.8444 84.2145C73.9675 79.5485 76.4792 72.4351 75.2407 63.062C74.1871 54.6556 74.9283 52.6906 75.8656 50.1896V50.0738C77.0008 47.1112 77.7872 44.5788 76.4793 43.0974L76.4792 43.0983ZM40.5981 15.5886H40.5989C41.4846 15.678 42.2936 16.087 42.8442 16.7232C43.1703 17.0977 43.3924 17.5368 43.4925 18.0051C42.3072 18.4259 41.3086 19.1889 40.6497 20.1769C39.9901 21.1642 39.7083 22.3216 39.8463 23.4694L39.9158 24.0154V24.0162C38.8605 23.4782 37.6463 23.2539 36.4432 23.3748C36.3665 23.3697 36.289 23.3697 36.2115 23.3748L36.8598 18.2258C36.9623 17.435 37.4 16.7115 38.0814 16.2087C38.762 15.7066 39.6323 15.4647 40.5058 15.5358L40.5981 15.5886ZM27.8665 16.0723L28.3178 12.5102C28.3961 11.69 28.8354 10.9336 29.5378 10.4124C30.2394 9.89124 31.1436 9.65008 32.0447 9.7439C32.9449 9.83772 33.766 10.2577 34.3199 10.9093C34.8738 11.5609 35.1136 12.3884 34.9852 13.2036L33.5731 24.3519C31.9252 25.458 31.0453 27.2727 31.2584 29.1228L32.1376 35.7429L31.767 38.6322C30.9128 38.3324 29.9924 38.2247 29.0818 38.317C27.2385 38.5223 25.615 39.5191 24.7188 40.9967L27.8665 16.0723ZM28.3291 78.2783C20.3894 77.3533 14.7878 75.5253 10.8059 72.5201C5.31978 68.3173 3.20123 62.0753 4.313 53.3115C5.42395 44.5482 4.57945 42.152 3.58395 39.4834V39.3676C3.10921 38.1172 2.02168 35.1649 2.64658 34.4817C2.88961 34.198 3.7115 34.1035 4.83458 34.2296C6.81346 34.4289 9.15168 36.0576 10.7955 38.3692H10.7947C12.8624 41.3992 13.7125 44.985 13.2015 48.5194C13.1248 49.1233 13.602 49.6687 14.2665 49.7383C14.9318 49.8079 15.5324 49.3755 15.6091 48.7715C15.8586 46.813 15.769 44.8311 15.3435 42.8975L18.8161 15.1363L18.8153 15.1371C18.9517 14.0574 19.7122 13.1265 20.8103 12.694C21.9083 12.2615 23.1767 12.3935 24.1384 13.0407C25.0991 13.6879 25.6078 14.7507 25.4713 15.8303L22.0796 42.4994C22.0053 43.1019 22.4809 43.6465 23.1445 43.7184C23.4457 43.7513 23.7492 43.6758 23.9898 43.508C23.9777 43.7074 23.9777 43.9075 23.9898 44.1068L25.9574 59.5951L27.8668 74.8738C28.0162 76.037 28.2907 77.1847 28.6888 78.2989L28.3291 78.2783ZM73.6207 49.3181V49.4442C72.6252 52.1027 71.7686 54.3932 72.8917 63.2621C74.0147 72.1303 71.8502 78.3091 66.3407 82.4707C62.3708 85.4861 56.8031 87.3251 48.8053 88.2817C44.3623 88.6621 39.9321 87.4439 36.4685 84.8896C33.0048 82.3345 30.7854 78.6476 30.2856 74.6214L27.7392 54.5947L26.3852 43.8766C26.2811 43.0747 26.533 42.2685 27.0844 41.636C27.6358 41.0035 28.4424 40.5959 29.3257 40.5036C30.2074 40.3988 31.0987 40.6267 31.7907 41.1339C32.4899 41.6353 32.9396 42.369 33.0405 43.1722L34.4066 53.9007L34.8579 57.4731C34.9346 58.0771 35.5361 58.5095 36.2006 58.4399C36.8659 58.3703 37.3422 57.825 37.2655 57.221L35.4828 42.9098L33.6541 28.8714C33.5564 28.071 33.8099 27.2677 34.3606 26.6359C34.9112 26.0048 35.7137 25.5958 36.5947 25.4983C37.4804 25.4089 38.3701 25.639 39.0708 26.1389C39.7619 26.641 40.2076 27.3696 40.3093 28.1671L43.4572 52.9448L43.458 52.9455C43.4725 53.0907 43.5242 53.2307 43.6082 53.3553V53.4286C43.6719 53.5158 43.7502 53.5935 43.8399 53.6595C43.8778 53.6902 43.9206 53.7152 43.9674 53.7335C44.0433 53.7863 44.1297 53.8258 44.2218 53.8493H44.4188C44.4801 53.8552 44.5423 53.8552 44.6036 53.8493H44.7425C45.0663 53.8266 45.3642 53.6814 45.5644 53.4498C45.7647 53.2182 45.8486 52.9206 45.7962 52.6304L42.7636 27.9258L42.1613 23.1337C42.0249 22.0548 42.5335 20.9913 43.4943 20.3441C44.4559 19.6976 45.7242 19.565 46.8224 19.9974C47.9204 20.4299 48.6802 21.3615 48.8166 22.4405L49.2679 26.0026L52.6588 52.6811H52.6596C52.6814 52.9765 52.8397 53.2506 53.0948 53.4346C53.3508 53.6186 53.6802 53.6962 54.0023 53.6479C54.3261 53.6251 54.624 53.4807 54.8242 53.2491C55.0245 53.0168 55.1084 52.7199 55.0551 52.4289L51.6754 25.7805C51.5745 24.7162 52.0952 23.6819 53.0471 23.0539C53.999 22.4257 55.244 22.2967 56.3274 22.7123C57.411 23.1287 58.1755 24.0295 58.3427 25.0871L61.8152 52.8483C61.3897 54.7811 61.3001 56.763 61.5488 58.7215C61.5706 59.0155 61.7272 59.2867 61.9807 59.4706C62.2334 59.6546 62.5596 59.733 62.8801 59.6883C63.2055 59.6685 63.5067 59.5249 63.7093 59.2933C63.912 59.0609 63.9975 58.7619 63.9451 58.4694C62.9843 50.5152 68.3775 44.5995 72.3596 44.1473C73.5173 44.0315 74.3037 44.1473 74.5589 44.3995C75.1838 45.1354 74.0842 48.0672 73.6208 49.3177L73.6207 49.3181Z" fill="#16161D"/>
<path d="M79.5237 34.2305H79.2112L64.7197 30.7842C64.4129 30.7116 64.1497 30.5313 63.989 30.2835C63.8291 30.0351 63.7831 29.739 63.863 29.4604C64.0294 28.8799 64.6825 28.5318 65.3212 28.6828L76.6293 31.3412L70.0088 22.7986H70.0097C69.8232 22.5567 69.7513 22.2569 69.8102 21.9667C69.8684 21.6764 70.0533 21.4199 70.3221 21.2535L76.1094 17.7229L69.5237 15.6215H69.5229C69.1983 15.5277 68.9359 15.3085 68.8059 15.0227C68.6783 14.7398 68.6783 14.4231 68.8059 14.1402L73.6784 4.07376L64.6616 9.64288C64.1731 9.92434 63.5345 9.85397 63.1341 9.47503L58.2728 4.54651L56.5595 10.2944C56.457 10.6389 56.176 10.9167 55.807 11.0406C55.4243 11.1909 54.9827 11.1425 54.65 10.9145L45.9925 5.48184L48.7005 14.2979C48.8798 14.8784 48.5068 15.4801 47.8673 15.6429C47.2279 15.8056 46.5642 15.4662 46.3858 14.8864L42.8326 3.17009C42.613 2.71345 42.7769 2.17913 43.2258 1.89107C43.6739 1.60376 44.2835 1.64187 44.6839 1.98269L54.6727 8.28773L56.5249 2.07726C56.6048 1.66314 56.9495 1.33256 57.4009 1.23654C57.8514 1.14052 58.3221 1.29738 58.5966 1.63601L64.2336 7.35242L75.8081 0.18631C76.2579 -0.0870796 76.8529 -0.0570384 77.2663 0.259606C77.6812 0.546918 77.8322 1.05047 77.6369 1.48879L71.6065 13.9514L79.2573 16.3475V16.3468C79.7288 16.4458 80.0832 16.8005 80.1454 17.2366C80.2076 17.6727 79.9637 18.0971 79.535 18.3016L72.6941 22.4312L80.5071 32.5079C80.8098 32.8796 80.8098 33.3868 80.5071 33.7584C80.2899 34.0582 79.9185 34.2363 79.5237 34.2311L79.5237 34.2305Z" fill="#16161D"/>
</svg>
