<svg width="32" height="32" viewBox="0 0 32 32" fill="none" xmlns="http://www.w3.org/2000/svg">
<path d="M16 0C7.168 0 0 7.168 0 16C0 24.832 7.168 32 16 32C24.832 32 32 24.832 32 16C32 7.168 24.832 0 16 0ZM8.5333 12.2667C8.5333 11.0933 9.4933 10.1334 10.6666 10.1334C11.8399 10.1334 12.7999 11.0934 12.7999 12.2667C12.7999 13.44 11.8399 14.4 10.6666 14.4C9.4933 14.4 8.5333 13.44 8.5333 12.2667ZM21.7066 23.6373C21.5893 23.7013 21.4613 23.7333 21.3333 23.7333C21.0453 23.7333 20.7679 23.584 20.6293 23.3066C19.7119 21.6 17.9413 20.5333 15.9999 20.5333C14.0585 20.5333 12.2879 21.6 11.3705 23.3066C11.1678 23.7013 10.6772 23.8506 10.2932 23.6373C9.8985 23.4346 9.7492 22.944 9.9625 22.56C11.1572 20.32 13.4611 18.9334 15.9998 18.9334C18.5385 18.9334 20.8424 20.3201 22.0371 22.56C22.2504 22.944 22.1013 23.4347 21.7066 23.6373ZM21.3333 14.4C20.16 14.4 19.2 13.44 19.2 12.2667C19.2 11.0934 20.16 10.1334 21.3333 10.1334C22.5066 10.1334 23.4666 11.0934 23.4666 12.2667C23.4666 13.44 22.5066 14.4 21.3333 14.4Z" fill="#16161B"/>
</svg>
