<svg width="40" height="40" viewBox="0 0 40 40" fill="none" xmlns="http://www.w3.org/2000/svg">
<path fill-rule="evenodd" clip-rule="evenodd" d="M0 20C0 8.95455 8.95455 0 20 0C31.0455 0 40 8.95455 40 20C40 30.1245 32.4691 38.4709 22.7073 39.7955V25.3009H27.8836L28.6964 20.0436H22.7073V17.17C22.7073 14.9864 23.4209 13.0491 25.4645 13.0491H28.7482V8.46L28.7172 8.4558C28.1277 8.37587 26.9113 8.21091 24.6464 8.21091C19.8327 8.21091 17.0109 10.7536 17.0109 16.5455V20.0436H12.0627V25.3009H17.0109V39.7527C7.38636 38.3064 0 30.0273 0 20Z" fill="#16161D"/>
</svg>
