<svg width="40" height="40" viewBox="0 0 40 40" fill="none" xmlns="http://www.w3.org/2000/svg">
<circle cx="20" cy="20" r="20" fill="#16161D"/>
<path d="M20.0419 31.08C13.9537 31.08 9 26.1281 9 20.04C9 13.9519 13.9537 9 20.0419 9C22.8 9 25.44 10.0219 27.4781 11.8781L27.8494 12.2175L24.2081 15.8587L23.8706 15.57C22.8019 14.655 21.4425 14.1506 20.0419 14.1506C16.7944 14.1506 14.1506 16.7925 14.1506 20.04C14.1506 23.2875 16.7944 25.9294 20.0419 25.9294C22.3837 25.9294 24.2344 24.7331 25.1062 22.695H19.5619V17.7244L30.3862 17.7394L30.4669 18.12C31.0312 20.7994 30.5794 24.7406 28.2919 27.5606C26.3981 29.895 23.6231 31.08 20.0419 31.08Z" fill="#F5F5F5"/>
</svg>
