<svg width="315" height="99" viewBox="0 0 315 99" fill="none" xmlns="http://www.w3.org/2000/svg">
<path d="M154.198 66.056H139.526L137.174 73H127.15L141.374 33.688H152.462L166.686 73H156.55L154.198 66.056ZM151.734 58.664L146.862 44.272L142.046 58.664H151.734ZM175.775 38.504C174.095 38.504 172.714 38.0187 171.631 37.048C170.586 36.04 170.063 34.808 170.063 33.352C170.063 31.8587 170.586 30.6267 171.631 29.656C172.714 28.648 174.095 28.144 175.775 28.144C177.418 28.144 178.762 28.648 179.807 29.656C180.89 30.6267 181.431 31.8587 181.431 33.352C181.431 34.808 180.89 36.04 179.807 37.048C178.762 38.0187 177.418 38.504 175.775 38.504ZM180.591 77.032C180.591 80.8773 179.62 83.64 177.679 85.32C175.738 87.0373 173.031 87.896 169.559 87.896H165.807V79.776H168.103C169.148 79.776 169.895 79.5707 170.343 79.16C170.791 78.7493 171.015 78.0773 171.015 77.144V41.752H180.591V77.032ZM218.332 41.752V73H208.756V68.744C207.785 70.1253 206.46 71.2453 204.78 72.104C203.137 72.9253 201.308 73.336 199.292 73.336C196.903 73.336 194.793 72.8133 192.964 71.768C191.135 70.6853 189.716 69.136 188.708 67.12C187.7 65.104 187.196 62.7333 187.196 60.008V41.752H196.716V58.72C196.716 60.8107 197.257 62.4347 198.34 63.592C199.423 64.7493 200.879 65.328 202.708 65.328C204.575 65.328 206.049 64.7493 207.132 63.592C208.215 62.4347 208.756 60.8107 208.756 58.72V41.752H218.332ZM223.306 57.32C223.306 54.1093 223.904 51.2907 225.098 48.864C226.33 46.4373 227.992 44.5707 230.082 43.264C232.173 41.9573 234.506 41.304 237.082 41.304C239.136 41.304 241.002 41.7333 242.682 42.592C244.4 43.4507 245.744 44.608 246.714 46.064V31.56H256.29V73H246.714V68.52C245.818 70.0133 244.53 71.208 242.85 72.104C241.208 73 239.285 73.448 237.082 73.448C234.506 73.448 232.173 72.7947 230.082 71.488C227.992 70.144 226.33 68.2587 225.098 65.832C223.904 63.368 223.306 60.5307 223.306 57.32ZM246.714 57.376C246.714 54.9867 246.042 53.1013 244.698 51.72C243.392 50.3387 241.786 49.648 239.882 49.648C237.978 49.648 236.354 50.3387 235.01 51.72C233.704 53.064 233.05 54.9307 233.05 57.32C233.05 59.7093 233.704 61.6133 235.01 63.032C236.354 64.4133 237.978 65.104 239.882 65.104C241.786 65.104 243.392 64.4133 244.698 63.032C246.042 61.6507 246.714 59.7653 246.714 57.376ZM261.314 57.32C261.314 54.1093 261.911 51.2907 263.106 48.864C264.338 46.4373 265.999 44.5707 268.09 43.264C270.181 41.9573 272.514 41.304 275.09 41.304C277.293 41.304 279.215 41.752 280.858 42.648C282.538 43.544 283.826 44.72 284.722 46.176V41.752H294.298V73H284.722V68.576C283.789 70.032 282.482 71.208 280.802 72.104C279.159 73 277.237 73.448 275.034 73.448C272.495 73.448 270.181 72.7947 268.09 71.488C265.999 70.144 264.338 68.2587 263.106 65.832C261.911 63.368 261.314 60.5307 261.314 57.32ZM284.722 57.376C284.722 54.9867 284.05 53.1013 282.706 51.72C281.399 50.3387 279.794 49.648 277.89 49.648C275.986 49.648 274.362 50.3387 273.018 51.72C271.711 53.064 271.058 54.9307 271.058 57.32C271.058 59.7093 271.711 61.6133 273.018 63.032C274.362 64.4133 275.986 65.104 277.89 65.104C279.794 65.104 281.399 64.4133 282.706 63.032C284.05 61.6507 284.722 59.7653 284.722 57.376ZM311.53 41.752V73H301.954V41.752H311.53ZM313.266 33.968L299.77 39.624V33.016L313.266 26.52V33.968Z" fill="#F5F5F5"/>
<path d="M75.7837 47.0421C74.9692 46.0325 73.5588 45.6661 71.4714 45.8949C68.7874 46.2045 65.8632 48.3493 63.8327 51.5032C63.5919 51.8704 63.3743 52.26 63.1679 52.6504L60.1854 27.1087C60.0094 25.7103 59.3246 24.4253 58.2614 23.4998C57.1981 22.575 55.8317 22.0734 54.422 22.0917C53.0124 22.1101 51.6596 22.6462 50.6204 23.599C50.3332 22.3974 49.6659 21.3205 48.7171 20.5293C47.7682 19.7381 46.5897 19.2741 45.3562 19.2061C45.0306 17.398 43.8481 15.8603 42.1841 15.0802C40.52 14.301 38.5815 14.377 36.9838 15.2834L37.0526 14.6874C37.2014 13.1977 36.7622 11.708 35.8285 10.5384C34.8949 9.36794 33.5396 8.6095 32.0539 8.42476C30.5682 8.23995 29.069 8.64317 27.8768 9.54881C26.8728 10.3512 26.1728 11.4721 25.8928 12.7258C24.8543 11.769 23.499 11.2289 22.087 11.2089C20.6749 11.1897 19.3053 11.6914 18.2405 12.6194C17.1756 13.5466 16.49 14.8346 16.3156 16.2355L13.3227 41.7198C13.1163 41.3302 12.8987 40.9398 12.6579 40.5726C10.6394 37.4189 7.70339 35.274 5.01917 34.9643C2.94303 34.7235 1.57818 35.1019 0.706927 36.1116C-0.634734 37.7748 0.156504 40.5502 1.23415 43.7272V43.8648C2.16299 46.6057 2.89742 48.7617 1.84218 57.903C0.694925 68.2249 3.11503 75.9558 9.12497 80.9788C13.3459 84.4996 19.1493 86.7134 27.2354 87.7454L27.3842 87.803H27.9346C28.1866 87.803 28.4162 87.8718 28.669 87.9062H28.8066H28.8058C28.8858 87.9182 28.9666 87.9182 29.0467 87.9062H29.4251C30.9931 91.1656 33.4492 93.9161 36.511 95.8417C39.5727 97.7674 43.1153 98.79 46.7322 98.7906H47.3171C47.3939 98.7962 47.4707 98.7962 47.5467 98.7906H47.6843L48.4067 98.6874H49.1291C57.215 97.5401 63.0184 95.4416 67.2274 91.9207C73.2949 86.8277 75.7837 79.0634 74.5565 68.8326C73.5125 59.657 74.2469 57.5122 75.1757 54.7824V54.6559C76.3006 51.4222 77.0798 48.6581 75.7838 47.0412L75.7837 47.0421ZM40.2289 17.0152H40.2297C41.1073 17.1128 41.909 17.5592 42.4545 18.2536C42.7777 18.6624 42.9978 19.1416 43.097 19.6529C41.9225 20.1121 40.9329 20.9449 40.28 22.0233C39.6264 23.101 39.3472 24.3643 39.484 25.6171L39.5528 26.2131V26.2139C38.5071 25.6267 37.304 25.3819 36.1118 25.5139C36.0358 25.5083 35.959 25.5083 35.8822 25.5139L36.5246 19.8937C36.6262 19.0305 37.0598 18.2409 37.7351 17.692C38.4095 17.144 39.2719 16.88 40.1375 16.9576L40.2289 17.0152ZM27.6131 17.5432L28.0603 13.6551C28.1379 12.7598 28.5731 11.9342 29.2692 11.3653C29.9644 10.7965 30.8604 10.5333 31.7533 10.6357C32.6453 10.7381 33.4589 11.1965 34.0078 11.9077C34.5567 12.619 34.7942 13.5222 34.6671 14.4119L33.2678 26.5804C31.6349 27.7877 30.763 29.7685 30.9742 31.7879L31.8454 39.0137L31.4782 42.1674C30.6317 41.8402 29.7197 41.7226 28.8173 41.8234C26.9908 42.0474 25.382 43.1354 24.494 44.7482L27.6131 17.5432ZM28.0715 85.4413C20.204 84.4317 14.6533 82.4364 10.7076 79.1562C5.27141 74.5688 3.17212 67.7557 4.27378 58.1899C5.37463 48.6247 4.5378 46.0093 3.55136 43.0965V42.9701C3.08094 41.6053 2.0033 38.3828 2.62251 37.6371C2.86333 37.3275 3.67775 37.2243 4.79062 37.3619C6.7515 37.5795 9.06845 39.3572 10.6973 41.8804H10.6965C12.7454 45.1876 13.5878 49.1015 13.0815 52.9593C13.0055 53.6185 13.4783 54.2137 14.1367 54.2897C14.796 54.3657 15.3912 53.8937 15.4672 53.2345C15.7144 51.0967 15.6256 48.9335 15.204 46.823L18.645 16.5215L18.6442 16.5223C18.7794 15.3439 19.533 14.3278 20.621 13.8557C21.7091 13.3837 22.9659 13.5277 23.9189 14.2342C24.8709 14.9406 25.3749 16.1006 25.2397 17.279L21.8788 46.3885C21.8052 47.0461 22.2764 47.6406 22.934 47.719C23.2324 47.755 23.5333 47.6726 23.7717 47.4893C23.7597 47.707 23.7597 47.9254 23.7717 48.143L25.7213 65.0485L27.6134 81.7252C27.7614 82.9949 28.0334 84.2477 28.4279 85.4638L28.0715 85.4413ZM72.9512 53.8312V53.9688C71.9648 56.8705 71.116 59.3706 72.2288 69.0511C73.3417 78.7307 71.1968 85.4749 65.7374 90.0173C61.8036 93.3086 56.2865 95.3159 48.3614 96.3601C43.9589 96.7753 39.569 95.4456 36.1368 92.6575C32.7046 89.8686 30.5054 85.8444 30.0102 81.4498L27.4869 59.5906L26.1453 47.8917C26.0421 47.0165 26.2917 46.1364 26.8381 45.4461C27.3845 44.7556 28.1838 44.3108 29.059 44.21C29.9327 44.0956 30.8159 44.3444 31.5016 44.898C32.1944 45.4453 32.64 46.2461 32.7401 47.1229L34.0937 58.833L34.5409 62.7324C34.6169 63.3916 35.2129 63.8636 35.8714 63.7876C36.5306 63.7116 37.0026 63.1164 36.9266 62.4571L35.1602 46.8364L33.3481 31.5134C33.2513 30.6398 33.5025 29.7629 34.0481 29.0733C34.5937 28.3845 35.389 27.9381 36.2619 27.8317C37.1395 27.7341 38.0211 27.9853 38.7155 28.5309C39.4003 29.0789 39.8419 29.8742 39.9427 30.7447L43.062 57.7897L43.0628 57.7905C43.0772 57.9489 43.1284 58.1017 43.2116 58.2377V58.3177C43.2748 58.4129 43.3524 58.4977 43.4412 58.5697C43.4788 58.6033 43.5212 58.6305 43.5676 58.6505C43.6428 58.7081 43.7284 58.7513 43.8196 58.7769H44.0148C44.0756 58.7833 44.1372 58.7833 44.198 58.7769H44.3356C44.6565 58.7521 44.9517 58.5937 45.1501 58.3409C45.3485 58.0881 45.4317 57.7633 45.3797 57.4465L42.3747 30.4814L41.7779 25.2508C41.6427 24.0731 42.1467 22.9123 43.0988 22.2059C44.0516 21.5002 45.3084 21.3554 46.3966 21.8274C47.4846 22.2995 48.2375 23.3163 48.3727 24.4941L48.8199 28.3821L52.18 57.5018H52.1808C52.2024 57.8242 52.3592 58.1235 52.612 58.3243C52.8656 58.5251 53.192 58.6099 53.5112 58.5571C53.832 58.5323 54.1272 58.3747 54.3257 58.1218C54.5241 57.8682 54.6073 57.5442 54.5545 57.2266L51.2055 28.1397C51.1054 26.978 51.6215 25.8491 52.5647 25.1636C53.5079 24.478 54.7416 24.3372 55.8152 24.7908C56.8889 25.2452 57.6465 26.2285 57.8121 27.3829L61.2531 57.6843C60.8315 59.794 60.7427 61.9572 60.9891 64.095C61.0107 64.4158 61.1659 64.7118 61.4171 64.9126C61.6675 65.1135 61.9907 65.199 62.3083 65.1503C62.6307 65.1287 62.9291 64.9719 63.13 64.719C63.3308 64.4654 63.4156 64.139 63.3636 63.8198C62.4115 55.1378 67.7557 48.6808 71.7015 48.1872C72.8488 48.0608 73.628 48.1872 73.8809 48.4624C74.5001 49.2656 73.4105 52.4658 72.9513 53.8306L72.9512 53.8312Z" fill="#F5F5F5"/>
<path d="M78.8004 37.3628H78.4908L64.1311 33.6011C63.8271 33.5218 63.5663 33.325 63.407 33.0546C63.2486 32.7834 63.203 32.4602 63.2822 32.1562C63.447 31.5226 64.0943 31.1426 64.7271 31.3074L75.9324 34.2091L69.3722 24.8848H69.373C69.1882 24.6207 69.1169 24.2935 69.1754 23.9767C69.233 23.6599 69.4162 23.3799 69.6826 23.1983L75.4172 19.3446L68.8914 17.051H68.8906C68.569 16.9486 68.309 16.7093 68.1802 16.3973C68.0538 16.0885 68.0538 15.7429 68.1802 15.4341L73.0083 4.44653L64.0735 10.5252C63.5895 10.8325 62.9567 10.7557 62.5599 10.342L57.7428 4.96254L56.0451 11.2364C55.9435 11.6124 55.6651 11.9157 55.2995 12.0509C54.9203 12.2149 54.4826 12.1621 54.153 11.9133L45.5742 5.98345L48.2576 15.6062C48.4352 16.2398 48.0656 16.8966 47.432 17.0742C46.7984 17.2519 46.1407 16.8814 45.9639 16.2486L42.4431 3.46017C42.2254 2.96175 42.3879 2.37853 42.8327 2.06411C43.2767 1.75051 43.8807 1.7921 44.2775 2.16411L54.1755 9.04609L56.0108 2.26734C56.09 1.81533 56.4316 1.45449 56.8788 1.34969C57.3252 1.24489 57.7917 1.4161 58.0637 1.78571L63.6494 8.0252L75.1187 0.203358C75.5643 -0.0950477 76.154 -0.0622576 76.5636 0.283361C76.9748 0.596964 77.1244 1.14659 76.9308 1.62502L70.9553 15.228L78.5365 17.8434V17.8426C79.0037 17.9506 79.3549 18.3378 79.4165 18.8139C79.4781 19.2899 79.2365 19.7531 78.8117 19.9763L72.033 24.4837L79.7749 35.4826C80.0749 35.8882 80.0749 36.4418 79.7749 36.8474C79.5597 37.1747 79.1917 37.3691 78.8005 37.3634L78.8004 37.3628Z" fill="#F5F5F5"/>
</svg>
